<svg xmlns="http://www.w3.org/2000/svg" width="140" height="140" viewBox="0 0 140 140">
  <g id="Illus" transform="translate(-2744 -5106)">
    <circle id="BG" cx="70" cy="70" r="70" transform="translate(2744 5106)" fill="#007aff"/>
    <g id="Ai" transform="translate(2774 5136)">
      <path id="Path_752" data-name="Path 752" d="M125.162,81.824H88.435a6.611,6.611,0,0,0-6.611,6.611v36.727a6.611,6.611,0,0,0,6.611,6.611h36.727a6.611,6.611,0,0,0,6.611-6.611V88.435A6.611,6.611,0,0,0,125.162,81.824Zm1.1,39.665a4.775,4.775,0,0,1-4.775,4.775H92.108a4.775,4.775,0,0,1-4.775-4.775V92.108a4.775,4.775,0,0,1,4.775-4.775h29.382a4.775,4.775,0,0,1,4.775,4.775Zm0,0" transform="translate(-66.798 -66.798)" fill="#fff"/>
      <path id="Path_753" data-name="Path 753" d="M193.734,194.022h4.04l-2.02-6.929Zm0,0" transform="translate(-158.158 -152.737)" fill="#fff"/>
      <path id="Path_754" data-name="Path 754" d="M155.777,123.824H126.4a2.57,2.57,0,0,0-2.571,2.571v29.382a2.571,2.571,0,0,0,2.571,2.571h29.382a2.571,2.571,0,0,0,2.571-2.571V126.4A2.571,2.571,0,0,0,155.777,123.824Zm-13.035,23.609c-.344,0-.626-.077-.727-.4l-.828-2.825H136.2l-.828,2.825c-.1.324-.384.423-.747.423-.586,0-1.334-.374-1.334-.9a.611.611,0,0,1,.02-.187l4.02-13.092a1.348,1.348,0,0,1,1.354-.729,1.378,1.378,0,0,1,1.374.727l4,13.089a.571.571,0,0,1,.041.182C144.1,147.05,143.348,147.434,142.742,147.434Zm5.138-.707c0,.465-.557.707-1.1.707-.525,0-1.1-.242-1.1-.707V133.355c0-.484.577-.687,1.1-.687.545,0,1.1.2,1.1.687Zm0,0" transform="translate(-101.086 -101.086)" fill="#fff"/>
      <path id="Path_755" data-name="Path 755" d="M234.926,373.645a1.1,1.1,0,0,0-1.1,1.1v9.182a1.1,1.1,0,1,0,2.2,0v-9.182A1.1,1.1,0,0,0,234.926,373.645Zm0,0" transform="translate(-190.886 -305.03)" fill="#fff"/>
      <path id="Path_756" data-name="Path 756" d="M190.926,373.645a1.1,1.1,0,0,0-1.1,1.1v9.182a1.1,1.1,0,1,0,2.2,0v-9.182A1.1,1.1,0,0,0,190.926,373.645Zm0,0" transform="translate(-154.966 -305.03)" fill="#fff"/>
      <path id="Path_757" data-name="Path 757" d="M147.926,373.645a1.1,1.1,0,0,0-1.1,1.1v9.182a1.1,1.1,0,1,0,2.2,0v-9.182A1.1,1.1,0,0,0,147.926,373.645Zm0,0" transform="translate(-119.862 -305.03)" fill="#fff"/>
      <path id="Path_758" data-name="Path 758" d="M277.926,373.645a1.1,1.1,0,0,0-1.1,1.1v9.182a1.1,1.1,0,1,0,2.2,0v-9.182A1.1,1.1,0,0,0,277.926,373.645Zm0,0" transform="translate(-225.99 -305.03)" fill="#fff"/>
      <path id="Path_759" data-name="Path 759" d="M189.824,1.1v9.182a1.1,1.1,0,1,0,2.2,0V1.1a1.1,1.1,0,1,0-2.2,0Zm0,0" transform="translate(-154.966)" fill="#fff"/>
      <path id="Path_760" data-name="Path 760" d="M233.824,1.1v9.182a1.1,1.1,0,1,0,2.2,0V1.1a1.1,1.1,0,1,0-2.2,0Zm0,0" transform="translate(-190.886)" fill="#fff"/>
      <path id="Path_761" data-name="Path 761" d="M277.926,11.385a1.1,1.1,0,0,0,1.1-1.1V1.1a1.1,1.1,0,0,0-2.2,0v9.182A1.1,1.1,0,0,0,277.926,11.385Zm0,0" transform="translate(-225.99)" fill="#fff"/>
      <path id="Path_762" data-name="Path 762" d="M146.824,1.1v9.182a1.1,1.1,0,0,0,2.2,0V1.1a1.1,1.1,0,0,0-2.2,0Zm0,0" transform="translate(-119.862)" fill="#fff"/>
      <path id="Path_763" data-name="Path 763" d="M383.928,189.824h-9.182a1.1,1.1,0,1,0,0,2.2h9.182a1.1,1.1,0,1,0,0-2.2Zm0,0" transform="translate(-305.03 -154.966)" fill="#fff"/>
      <path id="Path_764" data-name="Path 764" d="M383.928,233.824h-9.182a1.1,1.1,0,0,0,0,2.2h9.182a1.1,1.1,0,1,0,0-2.2Zm0,0" transform="translate(-305.03 -190.886)" fill="#fff"/>
      <path id="Path_765" data-name="Path 765" d="M383.928,276.824h-9.182a1.1,1.1,0,0,0,0,2.2h9.182a1.1,1.1,0,1,0,0-2.2Zm0,0" transform="translate(-305.03 -225.99)" fill="#fff"/>
      <path id="Path_766" data-name="Path 766" d="M383.928,146.824h-9.182a1.1,1.1,0,0,0,0,2.2h9.182a1.1,1.1,0,1,0,0-2.2Zm0,0" transform="translate(-305.03 -119.862)" fill="#fff"/>
      <path id="Path_767" data-name="Path 767" d="M10.284,233.824H1.1a1.1,1.1,0,1,0,0,2.2h9.182a1.1,1.1,0,1,0,0-2.2Zm0,0" transform="translate(0 -190.886)" fill="#fff"/>
      <path id="Path_768" data-name="Path 768" d="M10.284,189.824H1.1a1.1,1.1,0,1,0,0,2.2h9.182a1.1,1.1,0,1,0,0-2.2Zm0,0" transform="translate(0 -154.966)" fill="#fff"/>
      <path id="Path_769" data-name="Path 769" d="M10.284,146.824H1.1a1.1,1.1,0,0,0,0,2.2h9.182a1.1,1.1,0,0,0,0-2.2Zm0,0" transform="translate(0 -119.862)" fill="#fff"/>
      <path id="Path_770" data-name="Path 770" d="M10.284,276.824H1.1a1.1,1.1,0,0,0,0,2.2h9.182a1.1,1.1,0,0,0,0-2.2Zm0,0" transform="translate(0 -225.99)" fill="#fff"/>
    </g>
  </g>
</svg>
